# xmcd
#
# Track frame offsets:
#	150
#	15910
#	35504
#	53394
#	70504
#	85534
#	106110
#	124690
#	142025
#	156130
#	174045
#	190957
#	210618
#	228214
#	247869
#	266974
#	282654
#	299519
#
# Disc length: 4245 seconds
#
# Revision: 0
# Processed by: cddbd v1.5.2PL0 Copyright (c) Steve Scherf et al.
# Submitted via: audiograbber 1.83.01
#
DISCID=ed109312
DTITLE=Tim McGraw - Sundown Heaven Town (Deluxe Edition)
DYEAR=2014
DGENRE=Country
TTITLE0=Overrated
TTITLE1=City Lights
TTITLE2=Shotgun Rider
TTITLE3=Dust
TTITLE4=Diamond Rings and Old Barstools (with Catherine Dunn)
TTITLE5=Words Are Medicine
TTITLE6=Sick of Me
TTITLE7=Meanwhile Back At Mama's (feat. Faith Hill)
TTITLE8=Keep On Truckin'
TTITLE9=Last Turn Home
TTITLE10=Portland, Maine
TTITLE11=Lookin' For That Girl
TTITLE12=Still On The Line
TTITLE13=Lincoln Continentals and Cadillacs (Duet with Kid Rock)
TTITLE14=Kids Today
TTITLE15=I'm Feelin' You
TTITLE16=The View
TTITLE17=Black Jacket
EXTD=
EXTT0=
EXTT1=
EXTT2=
EXTT3=
EXTT4=
EXTT5=
EXTT6=
EXTT7=
EXTT8=
EXTT9=
EXTT10=
EXTT11=
EXTT12=
EXTT13=
EXTT14=
EXTT15=
EXTT16=
EXTT17=
PLAYORDER=
